HIERARCHY
ROOT Hips
{
    OFFSET 0.000000 0.000000 0.000000
    CHANNELS 6 Xposition Yposition Zposition Zrotation Xrotation Yrotation
    JOINT Spine
    {
        OFFSET -0.000000 14.517291 0.000000
        CHANNELS 3 Zrotation Xrotation Yrotation
        JOINT Spine1
        {
            OFFSET -0.000000 37.558300 0.000000
            CHANNELS 3 Zrotation Xrotation Yrotation
            JOINT Neck
            {
                OFFSET -0.000000 37.404057 3.400369
                CHANNELS 3 Zrotation Xrotation Yrotation
                JOINT Head
                {
                    OFFSET -0.000000 24.785618 -3.540803
                    CHANNELS 3 Zrotation Xrotation Yrotation
                    End Site
                    {
                        OFFSET -0.000000 35.408028 0.000000
                    }
                }
            }
            JOINT LeftShoulder
            {
                OFFSET 6.992933 33.973492 -0.192664
                CHANNELS 3 Zrotation Xrotation Yrotation
                JOINT LeftArm
                {
                    OFFSET 21.527611 0.000000 0.000000
                    CHANNELS 3 Zrotation Xrotation Yrotation
                    JOINT LeftForeArm
                    {
                        OFFSET 56.353916 0.000000 0.000000
                        CHANNELS 3 Zrotation Xrotation Yrotation
                        JOINT LeftHand
                        {
                            OFFSET 47.774071 0.000000 0.000000
                            CHANNELS 3 Zrotation Xrotation Yrotation
                            End Site
                            {
                                OFFSET 26.556021 0.000000 0.000000
                            }
                        }
                    }
                }
            }
            JOINT RightShoulder
            {
                OFFSET -7.065357 33.973492 -0.192664
                CHANNELS 3 Zrotation Xrotation Yrotation
                JOINT RightArm
                {
                    OFFSET -21.527611 0.000000 0.000000
                    CHANNELS 3 Zrotation Xrotation Yrotation
                    JOINT RightForeArm
                    {
                        OFFSET -56.353916 0.000000 0.000000
                        CHANNELS 3 Zrotation Xrotation Yrotation
                        JOINT RightHand
                        {
                            OFFSET -47.774071 0.000000 0.000000
                            CHANNELS 3 Zrotation Xrotation Yrotation
                            End Site
                            {
                                OFFSET -26.556021 0.000000 0.000000
                            }
                        }
                    }
                }
            }
        }
    }
    JOINT LeftUpLeg
    {
        OFFSET 17.704014 0.000000 0.000000
        CHANNELS 3 Zrotation Xrotation Yrotation
        JOINT LeftLeg
        {
            OFFSET -0.000000 -81.181816 0.000000
            CHANNELS 3 Zrotation Xrotation Yrotation
            JOINT LeftFoot
            {
                OFFSET -0.000000 -62.821102 0.000000
                CHANNELS 3 Zrotation Xrotation Yrotation
                JOINT LeftToeBase
                {
                    OFFSET -0.000000 -11.507608 26.556021
                    CHANNELS 3 Zrotation Xrotation Yrotation
                    End Site
                    {
                        OFFSET -0.000000 0.000000 7.081605
                    }
                }
            }
        }
    }
    JOINT RightUpLeg
    {
        OFFSET -17.704014 0.000000 0.000000
        CHANNELS 3 Zrotation Xrotation Yrotation
        JOINT RightLeg
        {
            OFFSET -0.000000 -81.181816 0.000000
            CHANNELS 3 Zrotation Xrotation Yrotation
            JOINT RightFoot
            {
                OFFSET -0.000000 -62.821102 0.000000
                CHANNELS 3 Zrotation Xrotation Yrotation
                JOINT RightToeBase
                {
                    OFFSET -0.000000 -11.507608 26.556021
                    CHANNELS 3 Zrotation Xrotation Yrotation
                    End Site
                    {
                        OFFSET -0.000000 0.000000 7.081605
                    }
                }
            }
        }
    }
}
MOTION
Frames:    11
Frame Time:    0.008333
-11.664036    150.227493    -100.559853    1.766585    -5.270724    47.820934    -2.547954    -0.071340    1.394970    1.042119    3.481350    0.433940    -3.139159    5.675625    -20.901804    18.534445    -0.195726    -18.905804    2.469877    7.748528    -13.210275    -34.754215    24.027111    -49.560596    -2.508150    -27.774382    -119.822647    -8.425695    -30.733467    -12.699051    1.340752    15.466981    -5.569801    32.020466    32.152119    43.455982    17.204994    15.064934    0.898312    -14.239297    11.663292    26.422396    16.639542    -6.389605    -7.996157    -20.779037    45.695007    -19.700663    10.609257    -33.033924    53.541382    0.000000    0.000000    0.000000    -25.849419    -16.106909    -26.957605    10.540214    30.749588    -17.785519    5.964565    5.605113    -8.006044    0.000000    0.000000    0.000000    
-11.640658    150.227982    -100.558029    1.768242    -5.263350    47.795219    -2.556126    -0.077944    1.394835    1.054561    3.487062    0.433551    -3.152788    5.666575    -20.901058    18.520779    -0.205177    -18.903782    2.455269    7.743721    -13.214259    -34.743046    24.054386    -49.587654    -2.489776    -27.831484    -119.820160    -8.472419    -30.755825    -12.715100    1.335071    15.464297    -5.579908    32.059490    32.197369    43.394402    17.143875    15.021583    0.915865    -14.198340    11.626829    26.422068    16.624449    -6.372316    -7.997420    -20.784952    45.686234    -19.692661    10.622202    -33.040348    53.561123    0.000000    0.000000    0.000000    -25.858761    -16.114054    -26.933195    10.551291    30.745396    -17.771683    5.965437    5.607108    -8.028566    0.000000    0.000000    0.000000    
-11.622419    150.229614    -100.556442    1.764288    -5.260457    47.771515    -2.553733    -0.082825    1.388116    1.058486    3.490520    0.431209    -3.167484    5.673655    -20.898638    18.528189    -0.225650    -18.895647    2.446664    7.744743    -13.219358    -34.752926    24.036219    -49.599483    -2.498949    -27.824917    -119.833527    -8.452799    -30.767052    -12.696994    1.328930    15.460751    -5.581625    32.131584    32.172768    43.330872    17.154976    14.991499    0.881148    -14.162259    11.609221    26.426531    16.619036    -6.356947    -8.000149    -20.794626    45.669819    -19.670200    10.629563    -33.036964    53.564133    0.000000    0.000000    0.000000    -25.857512    -16.118731    -26.918341    10.560721    30.733685    -17.787321    5.954874    5.614690    -8.010082    0.000000    0.000000    0.000000    
-11.599028    150.229813    -100.552986    1.764116    -5.254571    47.746136    -2.561189    -0.087602    1.379946    1.073327    3.489973    0.428135    -3.177003    5.669376    -20.896711    18.505972    -0.232259    -18.894558    2.423102    7.758128    -13.207458    -34.735405    24.044121    -49.634064    -2.489024    -27.859713    -119.831268    -8.483205    -30.783012    -12.698645    1.318544    15.465897    -5.588978    32.168167    32.192772    43.292175    17.113073    14.923626    0.878997    -14.086249    11.562618    26.396660    16.607458    -6.340752    -8.001486    -20.810793    45.658253    -19.662394    10.581191    -33.204769    53.684464    0.000000    0.000000    0.000000    -25.861055    -16.122444    -26.896202    10.568679    30.722561    -17.800829    5.956615    5.615841    -8.004578    0.000000    0.000000    0.000000    
-11.580387    150.231445    -100.547234    1.761631    -5.252481    47.721497    -2.564869    -0.090520    1.374711    1.079157    3.488078    0.426256    -3.172150    5.675902    -20.888002    18.484495    -0.260267    -18.884539    2.425085    7.767721    -13.210218    -34.746796    24.022390    -49.649803    -2.493694    -27.851213    -119.838226    -8.494054    -30.781610    -12.692020    1.318242    15.459884    -5.595778    32.259682    32.276997    43.271545    16.935936    14.834827    0.746405    -14.023559    11.499130    26.465773    16.603920    -6.320458    -7.977346    -20.782946    45.654228    -19.672911    10.636501    -33.058292    53.573788    0.000000    0.000000    0.000000    -25.853010    -16.125229    -26.886385    10.555462    30.712156    -17.798925    5.970142    5.606986    -7.980191    0.000000    0.000000    0.000000    
-11.559427    150.232834    -100.542473    1.761724    -5.250904    47.694637    -2.560755    -0.096891    1.365948    1.072213    3.494756    0.423509    -3.171981    5.679841    -20.884583    18.479965    -0.275229    -18.879284    2.427228    7.774785    -13.203304    -34.744446    24.016685    -49.670033    -2.496800    -27.868767    -119.842567    -8.509295    -30.802799    -12.685562    1.316341    15.456625    -5.591640    32.310860    32.254574    43.226551    16.937321    14.804695    0.712510    -14.017603    11.475871    26.458305    16.601389    -6.299301    -7.970322    -20.798143    45.642937    -19.665014    10.662256    -33.046833    53.591030    0.000000    0.000000    0.000000    -25.850561    -16.127335    -26.884039    10.551401    30.701532    -17.783714    5.941397    5.612674    -7.967700    0.000000    0.000000    0.000000    
-11.537621    150.233765    -100.535217    1.761001    -5.247270    47.672791    -2.558849    -0.107248    1.358178    1.064477    3.503272    0.421138    -3.185326    5.690038    -20.883629    18.501816    -0.290314    -18.871778    2.435989    7.777525    -13.206525    -34.746834    24.014503    -49.679405    -2.498910    -27.889767    -119.849106    -8.543782    -30.822361    -12.700898    1.323577    15.453324    -5.606357    32.337627    32.239243    43.201107    16.930243    14.775215    0.689202    -14.021343    11.450222    26.445299    16.592646    -6.285650    -7.953424    -20.795324    45.638783    -19.670506    10.601941    -33.208351    53.694187    0.000000    0.000000    0.000000    -25.842188    -16.122631    -26.917542    10.516172    30.684351    -17.755836    5.928523    5.609692    -7.933201    0.000000    0.000000    0.000000    
-11.520889    150.235535    -100.531616    1.757808    -5.238520    47.647903    -2.564302    -0.110543    1.347401    1.063010    3.494690    0.417601    -3.189580    5.686887    -20.873426    18.504093    -0.287639    -18.860615    2.433175    7.786177    -13.199762    -34.738857    24.003759    -49.686222    -2.497674    -27.897747    -119.850647    -8.559950    -30.826605    -12.702972    1.323396    15.448487    -5.612039    32.368542    32.205399    43.176121    16.955740    14.772449    0.649450    -14.058984    11.446708    26.426287    16.591703    -6.270082    -7.945256    -20.815769    45.617897    -19.623549    10.673115    -33.038002    53.580063    0.000000    0.000000    0.000000    -25.841501    -16.136774    -26.907181    10.501375    30.683554    -17.736055    5.943617    5.604018    -7.929244    0.000000    0.000000    0.000000    
-11.504503    150.234680    -100.529861    1.751614    -5.233119    47.625385    -2.568654    -0.112842    1.334286    1.070190    3.488258    0.413118    -3.196324    5.694466    -20.871771    18.505831    -0.298918    -18.856354    2.429153    7.787877    -13.191846    -34.745586    23.991030    -49.685745    -2.499422    -27.888741    -119.852303    -8.550490    -30.822044    -12.696900    1.328428    15.445557    -5.617769    32.354477    32.197872    43.165993    16.953876    14.780245    0.632645    -14.092989    11.450836    26.412863    16.583767    -6.270452    -7.928317    -20.817629    45.626923    -19.620773    10.608911    -33.206402    53.687901    0.000000    0.000000    0.000000    -25.840782    -16.151505    -26.928608    10.479158    30.691666    -17.701065    5.938344    5.607552    -7.920431    0.000000    0.000000    0.000000    
-11.487975    150.234650    -100.525795    1.743510    -5.228435    47.607922    -2.572855    -0.122061    1.319818    1.082358    3.488306    0.408009    -3.213671    5.694259    -20.862171    18.514423    -0.304727    -18.842373    2.416275    7.790178    -13.188919    -34.739838    23.986872    -49.685181    -2.513741    -27.894447    -119.861420    -8.544866    -30.849651    -12.699426    1.320808    15.439219    -5.629133    32.339596    32.179916    43.168655    16.983843    14.791289    0.606691    -14.128893    11.456311    26.420244    16.580793    -6.268629    -7.919872    -20.805565    45.635468    -19.623417    10.673182    -33.048973    53.600636    0.000000    0.000000    0.000000    -25.840731    -16.160593    -26.922472    10.481371    30.687410    -17.698914    5.937242    5.613161    -7.916765    0.000000    0.000000    0.000000    
-11.471157    150.235825    -100.523041    1.738193    -5.227300    47.590130    -2.567537    -0.127406    1.309103    1.074068    3.497374    0.404647    -3.206332    5.693470    -20.869505    18.506977    -0.320883    -18.849257    2.421719    7.777792    -13.186587    -34.743809    23.990637    -49.685684    -2.512925    -27.905443    -119.859779    -8.552257    -30.857927    -12.705818    1.322599    15.427003    -5.638551    32.313618    32.164093    43.170238    17.014179    14.828484    0.588492    -14.155094    11.489797    26.424917    16.578110    -6.261368    -7.930026    -20.827627    45.632122    -19.596756    10.689034    -33.049770    53.619354    0.000000    0.000000    0.000000    -25.841179    -16.170122    -26.921190    10.478557    30.694494    -17.676989    5.951439    5.616376    -7.923496    0.000000    0.000000    0.000000    
